<svg width="211" height="193" viewBox="0 0 211 193" fill="none" xmlns="http://www.w3.org/2000/svg">
<path d="M210.592 172.035H0.408155C0.299906 172.035 0.19609 171.994 0.119546 171.921C0.0430017 171.847 0 171.747 0 171.644C0 171.54 0.0430017 171.44 0.119546 171.367C0.19609 171.293 0.299906 171.252 0.408155 171.252H210.592C210.7 171.252 210.804 171.293 210.88 171.367C210.957 171.44 211 171.54 211 171.644C211 171.747 210.957 171.847 210.88 171.921C210.804 171.994 210.7 172.035 210.592 172.035Z" fill="black"/>
<path d="M97.5981 141.783C97.3816 141.783 97.174 141.7 97.0209 141.553C96.8678 141.406 96.7818 141.207 96.7818 140.999V136.831C96.7818 136.433 96.6178 136.051 96.3256 135.77C96.0335 135.488 95.6369 135.328 95.2226 135.326H77.9577C77.5434 135.328 77.1468 135.488 76.8547 135.77C76.5625 136.051 76.3985 136.433 76.3985 136.831V140.999C76.3985 141.207 76.3125 141.406 76.1594 141.553C76.0063 141.7 75.7987 141.783 75.5822 141.783C75.3657 141.783 75.1581 141.7 75.005 141.553C74.8519 141.406 74.7659 141.207 74.7659 140.999V136.831C74.7659 136.017 75.1019 135.237 75.7002 134.661C76.2986 134.086 77.1104 133.761 77.9577 133.759H95.2226C96.0699 133.761 96.8817 134.086 97.4801 134.661C98.0784 135.237 98.4144 136.017 98.4144 136.831V140.999C98.4144 141.207 98.3284 141.406 98.1753 141.553C98.0222 141.7 97.8146 141.783 97.5981 141.783Z" fill="black"/>
<path d="M117.712 140.999H55.4765C53.2899 140.999 51.5174 142.7 51.5174 144.799V184.674C51.5174 186.773 53.2899 188.474 55.4765 188.474H117.712C119.899 188.474 121.671 186.773 121.671 184.674V144.799C121.671 142.7 119.899 140.999 117.712 140.999Z" fill="#004E20"/>
<path d="M117.745 188.874H55.4765C54.3189 188.872 53.2093 188.429 52.3907 187.644C51.5722 186.858 51.1114 185.793 51.1092 184.682V144.799C51.1114 143.688 51.5722 142.623 52.3907 141.837C53.2093 141.052 54.3189 140.609 55.4765 140.607H117.745C118.902 140.609 120.012 141.052 120.83 141.837C121.649 142.623 122.11 143.688 122.112 144.799V184.682C122.11 185.793 121.649 186.858 120.83 187.644C120.012 188.429 118.902 188.872 117.745 188.874ZM55.5173 141.391C54.5762 141.393 53.6742 141.753 53.0088 142.391C52.3433 143.03 51.9685 143.896 51.9663 144.799V184.682C51.9663 185.586 52.3405 186.453 53.0064 187.092C53.6723 187.731 54.5755 188.09 55.5173 188.09H117.745C118.686 188.09 119.59 187.731 120.256 187.092C120.921 186.453 121.296 185.586 121.296 184.682V144.799C121.293 143.896 120.919 143.03 120.253 142.391C119.588 141.753 118.686 141.393 117.745 141.391H55.5173Z" fill="#D1D3D4"/>
<path d="M69.8844 139.863H68.4803C67.6012 139.863 66.8885 140.547 66.8885 141.391V188.09C66.8885 188.934 67.6012 189.618 68.4803 189.618H69.8844C70.7635 189.618 71.4762 188.934 71.4762 188.09V141.391C71.4762 140.547 70.7635 139.863 69.8844 139.863Z" fill="white"/>
<path d="M69.8844 190.01H68.4803C67.9499 190.01 67.4412 189.808 67.0661 189.448C66.6911 189.088 66.4804 188.599 66.4804 188.09V141.391C66.4804 140.882 66.6911 140.393 67.0661 140.033C67.4412 139.673 67.9499 139.471 68.4803 139.471H69.8844C70.4148 139.471 70.9235 139.673 71.2986 140.033C71.6736 140.393 71.8843 140.882 71.8843 141.391V188.09C71.8843 188.599 71.6736 189.088 71.2986 189.448C70.9235 189.808 70.4148 190.01 69.8844 190.01ZM68.4803 140.255C68.1664 140.255 67.8653 140.374 67.6434 140.587C67.4214 140.801 67.2967 141.09 67.2967 141.391V188.09C67.2967 188.392 67.4214 188.681 67.6434 188.894C67.8653 189.107 68.1664 189.226 68.4803 189.226H69.8844C70.1983 189.226 70.4994 189.107 70.7213 188.894C70.9433 188.681 71.068 188.392 71.068 188.09V141.391C71.068 141.09 70.9433 140.801 70.7213 140.587C70.4994 140.374 70.1983 140.255 69.8844 140.255H68.4803Z" fill="#D1D3D4"/>
<path d="M105.573 139.863H104.169C103.29 139.863 102.578 140.547 102.578 141.391V188.09C102.578 188.934 103.29 189.618 104.169 189.618H105.573C106.453 189.618 107.165 188.934 107.165 188.09V141.391C107.165 140.547 106.453 139.863 105.573 139.863Z" fill="white"/>
<path d="M105.573 190.01H104.169C103.639 190.01 103.13 189.808 102.755 189.448C102.38 189.088 102.169 188.599 102.169 188.09V141.391C102.169 140.882 102.38 140.393 102.755 140.033C103.13 139.673 103.639 139.471 104.169 139.471H105.573C106.104 139.471 106.613 139.673 106.988 140.033C107.363 140.393 107.573 140.882 107.573 141.391V188.09C107.573 188.599 107.363 189.088 106.988 189.448C106.613 189.808 106.104 190.01 105.573 190.01ZM104.169 140.255C103.855 140.255 103.554 140.374 103.332 140.587C103.11 140.801 102.986 141.09 102.986 141.391V188.09C102.986 188.392 103.11 188.681 103.332 188.894C103.554 189.107 103.855 189.226 104.169 189.226H105.573C105.887 189.226 106.188 189.107 106.41 188.894C106.632 188.681 106.757 188.392 106.757 188.09V141.391C106.757 141.09 106.632 140.801 106.41 140.587C106.188 140.374 105.887 140.255 105.573 140.255H104.169Z" fill="#D1D3D4"/>
<path d="M83.4678 169.669C86.0826 169.669 88.2024 167.634 88.2024 165.124C88.2024 162.615 86.0826 160.58 83.4678 160.58C80.8529 160.58 78.7332 162.615 78.7332 165.124C78.7332 167.634 80.8529 169.669 83.4678 169.669Z" fill="white"/>
<path d="M83.4596 170.069C82.4409 170.069 81.445 169.779 80.5979 169.235C79.7509 168.692 79.0906 167.92 78.7008 167.017C78.3109 166.113 78.2089 165.119 78.4077 164.16C78.6064 163.201 79.097 162.32 79.8174 161.628C80.5377 160.937 81.4555 160.466 82.4547 160.275C83.4539 160.085 84.4896 160.182 85.4308 160.557C86.372 160.931 87.1765 161.565 87.7424 162.378C88.3084 163.191 88.6105 164.147 88.6105 165.124C88.6105 165.774 88.4773 166.417 88.2184 167.017C87.9596 167.616 87.5802 168.161 87.1019 168.621C86.6236 169.08 86.0557 169.444 85.4308 169.692C84.8058 169.941 84.136 170.069 83.4596 170.069ZM83.4596 160.972C82.602 160.972 81.7636 161.216 81.0506 161.673C80.3376 162.131 79.782 162.781 79.4542 163.542C79.1263 164.303 79.041 165.14 79.2089 165.947C79.3768 166.754 79.7905 167.496 80.3975 168.077C81.0045 168.659 81.7776 169.054 82.619 169.214C83.4604 169.374 84.3322 169.29 85.1241 168.974C85.916 168.658 86.5924 168.123 87.0677 167.438C87.543 166.753 87.7958 165.948 87.7942 165.124C87.7921 164.022 87.3344 162.966 86.5218 162.188C85.7091 161.409 84.6078 160.972 83.4596 160.972Z" fill="#D1D3D4"/>
<path d="M96.681 169.497L82.5756 174.738L85.5143 182.025L99.6197 176.784L96.681 169.497Z" fill="white"/>
<path d="M85.2392 183.969C85.1565 183.968 85.0759 183.944 85.0076 183.9C84.9392 183.855 84.8863 183.792 84.8555 183.718L81.9576 176.392C81.9355 176.345 81.9241 176.294 81.9241 176.243C81.9241 176.192 81.9355 176.141 81.9576 176.094C81.9791 176.046 82.0103 176.002 82.0496 175.966C82.0888 175.93 82.1353 175.901 82.1862 175.883L96.3573 170.711C96.458 170.675 96.5694 170.679 96.6671 170.722C96.7649 170.764 96.8413 170.842 96.8798 170.938L99.7858 178.265C99.8267 178.36 99.8267 178.467 99.7858 178.562C99.74 178.656 99.6581 178.729 99.5573 178.766L85.3861 183.945L85.2392 183.969ZM82.8637 176.47L85.4759 183.068L98.8879 178.171L96.2757 171.573L82.8637 176.47Z" fill="#D1D3D4"/>
<path d="M99.2471 156.028L87.9003 158.308L85.5249 147.424L99.2471 156.028Z" fill="white"/>
<path d="M87.9003 158.699C87.8074 158.7 87.7171 158.67 87.6443 158.614C87.5716 158.559 87.5208 158.481 87.5003 158.394L85.0922 147.479C85.0762 147.402 85.0839 147.323 85.1144 147.251C85.1448 147.178 85.1967 147.116 85.2637 147.072C85.3303 147.029 85.4083 147.007 85.4881 147.007C85.5679 147.007 85.646 147.029 85.7126 147.072L99.4348 155.691C99.503 155.733 99.5565 155.793 99.5886 155.865C99.6206 155.936 99.6298 156.015 99.6149 156.092C99.6 156.168 99.5618 156.239 99.505 156.294C99.4482 156.35 99.3754 156.388 99.296 156.404L87.9493 158.684L87.9003 158.699ZM86.129 148.263L88.2187 157.837L98.2022 155.832L86.129 148.263Z" fill="#D1D3D4"/>
<path d="M187.319 186.672L183.776 189.603L180.927 187.597L179.654 177.716L187.18 176.141L187.319 186.672Z" fill="white"/>
<path d="M187.18 176.141L187.319 186.672L183.776 189.602L180.927 187.597L179.654 177.716L187.18 176.149M187.18 175.365C187.123 175.358 187.065 175.358 187.009 175.365L179.482 176.933C179.283 176.974 179.108 177.085 178.99 177.245C178.872 177.404 178.821 177.6 178.846 177.794L180.119 187.675C180.133 187.78 180.169 187.882 180.225 187.974C180.281 188.065 180.356 188.145 180.445 188.208L183.294 190.214C183.433 190.314 183.602 190.369 183.776 190.37C183.974 190.37 184.166 190.3 184.315 190.174L187.849 187.252C187.94 187.177 188.013 187.085 188.062 186.981C188.111 186.876 188.136 186.763 188.135 186.648L187.996 176.118C187.996 175.91 187.91 175.711 187.757 175.564C187.604 175.417 187.397 175.334 187.18 175.334V175.365Z" fill="#231F20"/>
<path d="M187.947 186.045C187.947 186.045 183.531 189.031 180.339 186.578C180.339 186.578 169.833 185.677 168.642 192.572H188.07L187.947 186.045Z" fill="#231F20"/>
<path d="M188.029 192.964H168.601C168.541 192.966 168.482 192.954 168.428 192.929C168.374 192.905 168.327 192.868 168.291 192.823C168.251 192.781 168.222 192.731 168.207 192.676C168.191 192.622 168.189 192.565 168.201 192.509C169.442 185.34 180.225 186.186 180.331 186.194C180.412 186.203 180.488 186.233 180.552 186.28C183.466 188.513 187.629 185.755 187.678 185.724C187.739 185.685 187.809 185.662 187.882 185.657C187.955 185.653 188.028 185.668 188.093 185.7C188.158 185.732 188.213 185.78 188.252 185.839C188.291 185.899 188.313 185.967 188.315 186.037L188.437 192.564C188.438 192.617 188.428 192.669 188.407 192.718C188.386 192.766 188.355 192.81 188.315 192.846C188.278 192.884 188.234 192.914 188.185 192.934C188.136 192.954 188.083 192.965 188.029 192.964ZM169.099 192.18H187.613L187.515 186.735C186.143 187.518 182.813 188.913 180.168 186.962C179.041 186.899 170.511 186.578 169.099 192.18Z" fill="#231F20"/>
<path d="M151.026 186.672L147.924 189.603L145.075 187.597L143.801 177.716L152.177 176.141L151.026 186.672Z" fill="white"/>
<path d="M152.177 176.141L151.026 186.656L147.924 189.587L145.075 187.581L143.801 177.7L152.177 176.133M152.177 175.35H152.013L143.646 176.917C143.444 176.955 143.265 177.065 143.144 177.225C143.022 177.385 142.969 177.583 142.993 177.779L144.258 187.659C144.273 187.765 144.311 187.867 144.368 187.959C144.426 188.051 144.502 188.13 144.593 188.192L147.442 190.198C147.581 190.298 147.75 190.353 147.924 190.355C148.138 190.354 148.343 190.272 148.495 190.127L151.597 187.205C151.734 187.078 151.821 186.909 151.842 186.727L152.985 176.196C152.998 176.074 152.981 175.951 152.936 175.837C152.89 175.723 152.818 175.62 152.724 175.538C152.575 175.404 152.38 175.329 152.177 175.326V175.35Z" fill="#231F20"/>
<path d="M184.805 93.0852L189.017 181.367L177.899 181.258L162.715 122.061L154.201 181.031L141.883 180.913L138.022 94.0882L184.805 93.0852Z" fill="#231F20"/>
<path d="M189.017 181.751L177.899 181.65C177.809 181.647 177.722 181.617 177.651 181.563C177.58 181.51 177.53 181.435 177.507 181.352L162.813 124.153L154.593 181.117C154.577 181.21 154.528 181.295 154.453 181.357C154.378 181.419 154.283 181.453 154.185 181.454L141.858 181.336C141.754 181.334 141.655 181.294 141.581 181.224C141.506 181.154 141.463 181.06 141.458 180.96L137.597 94.1352C137.593 94.0836 137.601 94.0319 137.619 93.9833C137.637 93.9347 137.666 93.8903 137.703 93.8531C137.739 93.8144 137.783 93.7833 137.833 93.7617C137.882 93.7402 137.935 93.7286 137.989 93.7277L184.78 92.7248C184.884 92.7267 184.984 92.7667 185.058 92.8366C185.132 92.9065 185.176 93.0011 185.18 93.1009L189.4 181.375C189.404 181.429 189.396 181.482 189.377 181.532C189.357 181.582 189.326 181.628 189.286 181.665C189.211 181.725 189.115 181.756 189.017 181.751ZM178.217 180.866L188.592 180.968L184.413 93.4848L138.438 94.4643L142.275 180.529L153.85 180.639L162.315 122.006C162.327 121.915 162.372 121.831 162.442 121.769C162.513 121.708 162.604 121.672 162.699 121.669C162.794 121.665 162.887 121.692 162.963 121.746C163.039 121.8 163.093 121.878 163.115 121.967L178.217 180.866Z" fill="#231F20"/>
<path d="M158.209 23.2712C164.755 23.2712 170.062 18.1775 170.062 11.8941C170.062 5.61069 164.755 0.516991 158.209 0.516991C151.663 0.516991 146.356 5.61069 146.356 11.8941C146.356 18.1775 151.663 23.2712 158.209 23.2712Z" fill="white"/>
<path d="M158.209 23.6786H158.087C154.821 23.6631 151.695 22.4048 149.394 20.1799C147.093 17.9549 145.805 14.9449 145.814 11.81C145.822 8.67511 147.125 5.67126 149.437 3.4573C151.749 1.24333 154.882 0 158.148 0C161.414 0 164.547 1.24333 166.859 3.4573C169.171 5.67126 170.474 8.67511 170.482 11.81C170.49 14.9449 169.203 17.9549 166.902 20.1799C164.601 22.4048 161.475 23.6631 158.209 23.6786ZM158.209 0.955782C156.708 0.949093 155.221 1.22621 153.832 1.77131C152.442 2.3164 151.179 3.11881 150.113 4.13271C149.046 5.1466 148.199 6.35214 147.618 7.68048C147.037 9.00882 146.735 10.434 146.728 11.8745C146.721 13.3151 147.01 14.7428 147.577 16.0763C148.145 17.4097 148.981 18.6228 150.038 19.6461C151.094 20.6695 152.35 21.4831 153.734 22.0406C155.118 22.598 156.602 22.8884 158.103 22.8951H158.217C161.248 22.9096 164.161 21.7679 166.315 19.7209C168.469 17.674 169.688 14.8896 169.703 11.9803C169.718 9.07095 168.528 6.275 166.396 4.2075C164.263 2.14001 161.363 0.970328 158.332 0.955782H158.209Z" fill="#231F20"/>
<path d="M173.718 16.0976C174.612 12.2011 168.299 7.55451 159.616 5.71912C150.934 3.88374 143.17 5.5546 142.276 9.4511C141.382 13.3476 147.696 17.9942 156.379 19.8296C165.061 21.665 172.824 19.9941 173.718 16.0976Z" fill="#231F20"/>
<path d="M163.303 20.9832C160.946 20.9625 158.598 20.6999 156.299 20.1997C147.262 18.2878 140.928 13.5239 141.883 9.35541C142.838 5.18694 150.675 3.41612 159.711 5.32014C168.748 7.22416 175.082 12.0038 174.119 16.1723C173.425 19.2203 169.091 20.9832 163.303 20.9832ZM152.691 5.35932C147.32 5.35932 143.263 6.92641 142.658 9.53562C141.842 13.2183 147.997 17.6688 156.446 19.4553C164.895 21.2418 172.462 19.6982 173.303 16.0156C174.119 12.3407 167.964 7.89017 159.515 6.10369C157.283 5.62121 155.003 5.37164 152.715 5.35932H152.691Z" fill="#231F20"/>
<path d="M146.071 12.2232C146.177 11.9333 146.299 11.6434 146.422 11.3613C147.875 8.16442 153.548 7.96854 156.601 8.17226C159.471 8.27692 162.264 9.08625 164.715 10.5229C166.634 11.7374 168.658 13.9392 168.862 16.2506C169.066 18.5621 168.176 21.4847 167.409 23.6238C167.016 24.9297 166.292 26.1221 165.303 27.0949C164.225 27.9326 162.954 28.5126 161.597 28.7874C158.723 29.5317 155.63 29.8843 152.789 29.0146C149.948 28.1449 146.936 25.7159 146.079 22.7932C144.957 19.3526 144.954 15.6654 146.071 12.2232Z" fill="white"/>
<path d="M156.405 29.947C155.138 29.9554 153.878 29.7784 152.666 29.422C149.401 28.4191 146.495 25.7472 145.671 22.9186C144.846 20.09 144.218 16.1017 145.671 12.1292C145.777 11.8314 145.899 11.5337 146.03 11.2438C147.72 7.50624 154.568 7.67078 156.642 7.81182C159.583 7.89012 162.452 8.7001 164.968 10.1625C166.821 11.3378 169.05 13.6179 169.303 16.1879C169.466 18.0136 168.968 20.5523 167.817 23.7335C167.402 25.1012 166.642 26.3498 165.605 27.3691C164.47 28.2547 163.133 28.8696 161.703 29.1635C159.981 29.6471 158.199 29.9106 156.405 29.947ZM146.471 12.3956C145.091 16.1723 145.711 20.0822 146.471 22.6992C147.23 25.3163 149.875 27.7217 152.911 28.6463C155.279 29.3672 158.087 29.2888 161.474 28.4113C162.765 28.1569 163.977 27.6207 165.017 26.8442C165.952 25.9157 166.634 24.7798 167.001 23.5376C168.111 20.4661 168.593 18.0528 168.438 16.329C168.25 14.1899 166.307 12.0665 164.478 10.9068C162.088 9.50639 159.359 8.72858 156.56 8.65021C154.642 8.51701 148.275 8.34463 146.805 11.5964C146.683 11.8706 146.569 12.1448 146.462 12.4269L146.471 12.3956Z" fill="#231F20"/>
<path d="M182.519 59.283L189.743 51.2281C184.788 43.0322 179.613 38.3545 176.184 36.6463C171.735 33.6924 161.491 34.2957 152.005 34.7972C148.98 34.8726 145.987 35.4013 143.132 36.3643C132.414 40.2115 123.622 56.3447 123.622 56.3447L133.973 61.1322C133.973 61.1322 133.753 92.8031 135.826 99.7062C135.826 99.7062 165.434 104.235 186.307 96.6425C186.315 96.6739 182.511 61.9862 182.519 59.283Z" fill="#004E20"/>
<path d="M151.703 30.5973L152.348 37.5239C152.348 37.5239 155.221 41.4416 159.646 39.6238C160.947 39.0855 162.107 38.275 163.041 37.2516C163.974 36.2281 164.658 35.0175 165.042 33.708L162.878 21.2653C162.878 21.2653 159.172 20.0508 158.968 12.7873C155.472 14.9268 151.44 16.1231 147.295 16.2506C147.295 16.2506 146.479 24.282 147.646 27.612C148.813 30.9421 151.703 30.5973 151.703 30.5973Z" fill="white"/>
<path d="M157.352 40.5014C154.087 40.5014 152.03 37.7903 152.005 37.759C151.965 37.7 151.94 37.6329 151.932 37.5631L151.32 31.0048C150.389 31.0048 148.201 30.5503 147.238 27.7374C146.087 24.3681 146.83 16.5405 146.862 16.2114C146.874 16.1136 146.921 16.0228 146.996 15.9553C147.071 15.8879 147.168 15.8481 147.271 15.8432C151.326 15.7085 155.27 14.5402 158.699 12.4582C158.764 12.4202 158.839 12.4001 158.915 12.4001C158.992 12.4001 159.066 12.4202 159.132 12.4582C159.2 12.4915 159.258 12.5418 159.3 12.6037C159.341 12.6657 159.365 12.7372 159.368 12.8108C159.556 19.6512 162.96 20.9049 162.993 20.9127C163.064 20.9359 163.128 20.9773 163.177 21.0325C163.226 21.0877 163.258 21.1546 163.27 21.2261L165.434 33.6767C165.446 33.7283 165.446 33.7818 165.434 33.8334C165.039 35.2072 164.328 36.4779 163.351 37.551C162.374 38.6241 161.158 39.4719 159.793 40.0312C159.02 40.3412 158.19 40.501 157.352 40.5014ZM152.764 37.3672C153.205 37.9157 155.736 40.7599 159.474 39.2477C160.701 38.7361 161.797 37.9731 162.684 37.012C163.571 36.051 164.228 34.9152 164.609 33.6845L162.503 21.5395C161.687 21.1399 158.944 19.3926 158.585 13.5004C155.267 15.3761 151.525 16.4516 147.679 16.6345C147.548 18.2016 147.083 24.6659 148.046 27.4867C149.05 30.4485 151.548 30.2134 151.654 30.1977C151.768 30.1857 151.882 30.2166 151.973 30.2839C152.057 30.3577 152.112 30.4575 152.128 30.566L152.764 37.3672Z" fill="#231F20"/>
<path d="M160.144 21.469C160.201 20.8389 160.467 20.2429 160.903 19.7687C161.332 19.3473 161.831 18.9977 162.381 18.7344C162.668 18.5633 162.991 18.4562 163.327 18.421C163.565 18.4162 163.802 18.4588 164.021 18.5464C164.556 18.7035 165.015 19.0364 165.319 19.4867C165.511 19.8781 165.604 20.3078 165.589 20.7403C165.614 21.2084 165.572 21.6776 165.466 22.135C165.348 22.5899 165.137 23.0178 164.846 23.394C164.555 23.7702 164.188 24.0873 163.769 24.327C163.349 24.5667 162.884 24.7242 162.401 24.7904C161.917 24.8566 161.425 24.8303 160.952 24.7129" fill="white"/>
<path d="M161.874 25.2457C161.525 25.2467 161.176 25.2046 160.838 25.1204C160.784 25.1067 160.735 25.0831 160.691 25.0509C160.647 25.0186 160.611 24.9784 160.583 24.9325C160.556 24.8865 160.538 24.8359 160.532 24.7834C160.525 24.7309 160.529 24.6777 160.544 24.6267C160.573 24.5232 160.643 24.4347 160.739 24.3805C160.835 24.3262 160.95 24.3105 161.058 24.3368C161.476 24.4414 161.911 24.4654 162.338 24.4076C162.765 24.3498 163.177 24.2112 163.548 23.9999C164.312 23.5688 164.867 22.8643 165.091 22.041C165.185 21.6164 165.224 21.182 165.205 20.7482C165.213 20.3818 165.138 20.0181 164.985 19.6825C164.73 19.3106 164.349 19.034 163.907 18.899C163.739 18.8309 163.559 18.7963 163.376 18.7971C163.105 18.8326 162.846 18.9263 162.617 19.0714C162.11 19.3072 161.649 19.6252 161.254 20.0116C160.876 20.4186 160.646 20.9331 160.601 21.4769C160.589 21.5828 160.534 21.6802 160.449 21.7488C160.364 21.8173 160.255 21.8518 160.144 21.8451C160.089 21.8412 160.036 21.8269 159.987 21.803C159.938 21.7792 159.894 21.7463 159.859 21.7063C159.823 21.6662 159.796 21.6198 159.779 21.5697C159.762 21.5195 159.756 21.4667 159.76 21.4142C159.821 20.6933 160.124 20.0111 160.625 19.471C161.084 19.0138 161.623 18.6372 162.217 18.3583C162.554 18.1517 162.938 18.0255 163.336 17.9901C163.628 17.9901 163.919 18.0406 164.193 18.139C164.826 18.3274 165.368 18.7278 165.719 19.2673C165.943 19.7171 166.055 20.2106 166.046 20.709C166.068 21.2141 166.022 21.7199 165.907 22.2134C165.69 23.0722 165.176 23.8353 164.45 24.3787C163.724 24.9221 162.828 25.2138 161.907 25.2065L161.874 25.2457Z" fill="#231F20"/>
<path d="M152.193 34.0136C153.057 33.9732 153.901 33.7558 154.67 33.3761C155.439 32.9963 156.114 32.4629 156.65 31.8118C158.356 29.6179 157.997 28.5601 157.997 28.5601C157.997 28.5601 155.026 30.7854 151.907 30.6757L152.193 34.0136Z" fill="#231F20"/>
<path d="M152.193 34.4054C152.09 34.4057 151.991 34.3688 151.915 34.3019C151.84 34.2351 151.793 34.1433 151.785 34.045L151.507 30.7306C151.503 30.6767 151.511 30.6226 151.529 30.5715C151.547 30.5203 151.576 30.4732 151.613 30.4328C151.652 30.3907 151.7 30.3575 151.753 30.3357C151.807 30.314 151.865 30.3043 151.924 30.3074C154.846 30.4093 157.719 28.2937 157.752 28.2702C157.803 28.2313 157.863 28.2052 157.927 28.1942C157.992 28.1833 158.058 28.1879 158.119 28.2075C158.181 28.2267 158.238 28.2593 158.285 28.3028C158.331 28.3463 158.367 28.3995 158.389 28.4583C158.389 28.5915 158.756 29.7746 156.977 32.0626C156.403 32.7623 155.678 33.3346 154.853 33.7404C154.027 34.1461 153.12 34.3756 152.193 34.4132V34.4054ZM152.348 31.0675L152.56 33.5983C153.295 33.5152 154.006 33.2938 154.651 32.947C155.297 32.6001 155.865 32.1345 156.324 31.5768C156.888 30.9144 157.307 30.1495 157.556 29.328C156.004 30.3274 154.211 30.9265 152.348 31.0675Z" fill="#231F20"/>
<path d="M152.691 19.6669C152.691 19.6669 150.732 23.4279 151.385 23.9607C152.038 24.4935 153.597 23.9059 153.597 23.9059" fill="white"/>
<path d="M152.193 24.5797C151.809 24.5993 151.431 24.4883 151.124 24.2663C150.381 23.6551 151.368 21.3358 152.332 19.4945C152.351 19.4422 152.381 19.3945 152.421 19.3544C152.461 19.3143 152.509 19.2828 152.563 19.262C152.616 19.2411 152.674 19.2313 152.732 19.2334C152.789 19.2354 152.846 19.2491 152.898 19.2737C152.949 19.2982 152.995 19.333 153.032 19.3758C153.068 19.4186 153.095 19.4683 153.11 19.5218C153.126 19.5752 153.129 19.6312 153.12 19.6859C153.111 19.7406 153.09 19.7929 153.058 19.8393C152.16 21.5631 151.515 23.3652 151.679 23.6943C151.964 23.9215 152.895 23.7492 153.45 23.5376C153.5 23.5186 153.553 23.5091 153.607 23.5099C153.66 23.5106 153.713 23.5214 153.763 23.5418C153.812 23.5622 153.857 23.5917 153.894 23.6286C153.931 23.6655 153.961 23.7091 153.981 23.757C154.001 23.8048 154.01 23.856 154.01 23.9075C154.009 23.9589 153.998 24.0098 153.976 24.0571C153.955 24.1044 153.924 24.1472 153.886 24.1831C153.847 24.219 153.802 24.2473 153.752 24.2663C153.255 24.4551 152.727 24.5611 152.193 24.5797Z" fill="#231F20"/>
<path d="M153.409 26.4602C153.409 26.4602 156.217 26.9695 156.617 24.376Z" fill="white"/>
<path d="M153.964 26.8912C153.754 26.8903 153.544 26.8746 153.336 26.8442C153.282 26.8344 153.231 26.8146 153.186 26.7859C153.14 26.7571 153.101 26.7201 153.07 26.6768C153.039 26.6335 153.018 26.5848 153.007 26.5336C152.995 26.4823 152.995 26.4294 153.005 26.378C153.015 26.3265 153.036 26.2775 153.066 26.2337C153.096 26.1899 153.134 26.1522 153.18 26.1227C153.225 26.0933 153.275 26.0726 153.329 26.062C153.382 26.0513 153.437 26.0509 153.491 26.0606C154.156 26.1706 154.841 26.0453 155.417 25.708C155.648 25.5419 155.84 25.3312 155.98 25.0897C156.121 24.8481 156.207 24.581 156.234 24.3055C156.25 24.2016 156.309 24.1081 156.397 24.0457C156.485 23.9832 156.595 23.9569 156.703 23.9725C156.811 23.9881 156.909 24.0443 156.974 24.1288C157.039 24.2133 157.066 24.3191 157.05 24.423C157.011 24.8034 156.89 25.1716 156.693 25.5037C156.496 25.8358 156.228 26.1244 155.907 26.3505C155.334 26.7207 154.655 26.9097 153.964 26.8912Z" fill="#231F20"/>
<path d="M157.376 19.1201C157.417 18.6718 157.181 18.2856 156.849 18.2574C156.517 18.2293 156.214 18.5699 156.173 19.0182C156.131 19.4665 156.367 19.8528 156.7 19.8809C157.032 19.909 157.335 19.5684 157.376 19.1201Z" fill="#231F20"/>
<path d="M151.081 19.9277C151.122 19.4794 150.886 19.0931 150.554 19.065C150.222 19.0369 149.919 19.3775 149.878 19.8258C149.837 20.2741 150.073 20.6603 150.405 20.6885C150.737 20.7166 151.04 20.376 151.081 19.9277Z" fill="#231F20"/>
<path d="M156.74 49.7316L138.34 54.9108L120.887 50.6013L104.512 54.5817L86.5289 49.661L105.867 92.6699L121.206 96.5642L134.022 91.7845L147.638 96.8149L159.009 93.1792L156.74 49.7316Z" fill="white"/>
<path d="M86.5289 49.6611L104.488 54.5817L120.863 50.6013L138.316 54.9108L156.715 49.7316L158.985 93.1792L147.613 96.8149L133.997 91.7845L121.181 96.5642L105.843 92.6464L86.5289 49.6611ZM86.5289 48.8775C86.413 48.8777 86.2985 48.9015 86.1929 48.9474C86.0874 48.9933 85.9932 49.0603 85.9167 49.1439C85.8137 49.2554 85.7459 49.3927 85.7214 49.5398C85.6968 49.6869 85.7164 49.8377 85.7779 49.9745L105.116 92.9833C105.166 93.0929 105.241 93.1901 105.336 93.2675C105.431 93.3449 105.543 93.4005 105.663 93.43L121.01 97.332C121.078 97.3397 121.146 97.3397 121.214 97.332C121.317 97.3335 121.42 97.3148 121.516 97.2772L134.022 92.6308L147.344 97.5514C147.439 97.5823 147.538 97.5982 147.638 97.5984C147.727 97.6014 147.815 97.5881 147.899 97.5593L159.27 93.9236C159.439 93.8691 159.585 93.763 159.685 93.6215C159.786 93.48 159.835 93.3109 159.825 93.1401L157.556 49.6924C157.549 49.5748 157.515 49.4602 157.456 49.3571C157.396 49.254 157.313 49.165 157.213 49.0969C157.074 49.0034 156.91 48.9516 156.74 48.948C156.664 48.9399 156.587 48.9399 156.511 48.948L138.324 54.0646L121.092 49.8491C121.024 49.8422 120.955 49.8422 120.887 49.8491C120.82 49.8372 120.751 49.8372 120.683 49.8491L104.52 53.7668L86.7249 48.9088C86.6516 48.9013 86.5777 48.9013 86.5044 48.9088L86.5289 48.8775Z" fill="#231F20"/>
<path d="M147.524 96.6973C147.43 96.6974 147.338 96.6662 147.265 96.6091C147.193 96.552 147.143 96.4724 147.124 96.3839L138.022 55.3653C138.01 55.3148 138.008 55.2626 138.017 55.2116C138.026 55.1606 138.046 55.1118 138.075 55.0681C138.104 55.0244 138.141 54.9866 138.185 54.9569C138.23 54.9272 138.279 54.9062 138.332 54.8951C138.439 54.8762 138.549 54.8973 138.64 54.9542C138.732 55.011 138.796 55.0993 138.822 55.2007L147.948 96.2194C147.96 96.2698 147.962 96.322 147.953 96.373C147.944 96.424 147.924 96.4728 147.895 96.5165C147.866 96.5602 147.829 96.598 147.785 96.6277C147.74 96.6574 147.691 96.6784 147.638 96.6895L147.524 96.6973Z" fill="#004E20"/>
<path d="M133.859 91.6905C133.771 91.6893 133.685 91.6613 133.615 91.6106C133.545 91.5599 133.493 91.4892 133.467 91.4084L120.667 51.2595C120.636 51.1597 120.647 51.0523 120.697 50.9602C120.748 50.868 120.833 50.7983 120.936 50.7659C121.039 50.7364 121.15 50.7471 121.245 50.7955C121.339 50.8439 121.411 50.9261 121.443 51.0244L134.25 91.1812C134.281 91.2809 134.271 91.3883 134.22 91.4805C134.17 91.5727 134.084 91.6424 133.981 91.6748L133.859 91.6905Z" fill="#004E20"/>
<path d="M121.01 96.5015C120.928 96.5027 120.847 96.4792 120.78 96.4342C120.713 96.3892 120.662 96.325 120.634 96.2507L104.308 55.2242C104.27 55.1266 104.274 55.0184 104.32 54.9237C104.365 54.8289 104.447 54.7552 104.549 54.7188C104.651 54.6825 104.763 54.6864 104.862 54.7297C104.961 54.7731 105.038 54.8523 105.076 54.95L113.239 75.4632L121.402 95.9765C121.439 96.0732 121.435 96.18 121.391 96.2739C121.346 96.3677 121.265 96.4411 121.165 96.478C121.115 96.4942 121.063 96.5021 121.01 96.5015Z" fill="#004E20"/>
<path d="M92.039 66.4838C92.1613 67.3229 92.4001 68.1424 92.7492 68.9206L94.3165 72.8384C94.7084 73.8099 95.3369 74.9539 96.4226 74.9618C96.7915 74.913 97.1463 74.7936 97.4661 74.6105C97.7858 74.4275 98.0639 74.1845 98.2838 73.8961C99.9164 72.329 101.549 70.5739 101.957 68.4113C102.023 68.0979 101.957 67.6748 101.655 67.6278C101.51 67.6098 101.363 67.6402 101.239 67.714C100.077 68.2456 99.0495 69.0129 98.2267 69.9627C99.362 68.8006 100.344 67.5085 101.149 66.1155C101.329 65.8099 101.467 65.332 101.149 65.1439C101.038 65.0926 100.917 65.0659 100.794 65.0659C100.671 65.0659 100.55 65.0926 100.439 65.1439C99.5833 65.4514 98.8006 65.9203 98.1369 66.523C99.0533 65.9089 99.7739 65.0625 100.218 64.0783C100.382 63.7179 100.455 63.1929 100.088 63.0048C99.7205 62.8168 99.4593 63.0519 99.2062 63.2477C98.5702 63.7177 97.98 64.2422 97.443 64.8148C97.85 64.2967 98.1292 63.6965 98.2593 63.0597C98.3165 62.924 98.3165 62.7723 98.2593 62.6366C98.0716 62.3702 97.6389 62.5504 97.3695 62.7463L93.6145 65.5592C93.7859 65.4338 92.8635 64.4074 92.5043 64.5014C91.9737 64.6111 91.9982 66.1312 92.039 66.4838Z" fill="white"/>
<path d="M96.4389 75.3927C94.9043 75.3927 94.1941 73.5984 93.99 73.0421L92.4227 69.1244C92.0501 68.3165 91.8 67.4616 91.6799 66.5857C91.6799 66.3584 91.5003 64.4074 92.4309 64.1567C92.937 64.0235 93.5247 64.5876 93.8186 64.9402L97.1573 62.4407C97.4334 62.2139 97.7904 62.0988 98.1532 62.1194C98.2526 62.1346 98.3475 62.1696 98.4319 62.2223C98.5163 62.2749 98.5882 62.344 98.643 62.425C98.7081 62.5316 98.7497 62.6499 98.7651 62.7726C98.7805 62.8952 98.7696 63.0196 98.7328 63.1381C98.7366 63.1509 98.7366 63.1644 98.7328 63.1772L99.0348 62.95C99.2016 62.7829 99.4166 62.6674 99.6523 62.6185C99.888 62.5697 100.133 62.5896 100.357 62.6758C100.945 62.9657 100.937 63.6787 100.676 64.2429C100.593 64.425 100.5 64.6029 100.398 64.7757C100.568 64.7022 100.754 64.6689 100.94 64.6784C101.126 64.688 101.307 64.7401 101.467 64.8305C101.884 65.1283 101.925 65.6767 101.557 66.3114C101.32 66.7189 101.076 67.095 100.806 67.5102L101.116 67.3614C101.324 67.2481 101.566 67.2066 101.802 67.2438C102.3 67.3535 102.545 67.855 102.414 68.5053C101.957 70.856 100.121 72.713 98.643 74.1939C98.3827 74.5299 98.0523 74.8101 97.6728 75.0165C97.2932 75.223 96.873 75.3511 96.4389 75.3927ZM92.439 66.4446C92.5595 67.2545 92.7929 68.0451 93.1329 68.7953L94.7002 72.713C95.2063 73.9667 95.7696 74.5778 96.4226 74.5857C97.0502 74.469 97.6095 74.1307 97.9899 73.6376C99.394 72.2272 101.141 70.5034 101.557 68.3486C101.592 68.2308 101.592 68.1061 101.557 67.9882L101.435 68.0509C100.547 68.4598 99.738 69.011 99.043 69.6807C98.8797 69.8609 98.7083 70.0411 98.5369 70.2135C98.4619 70.2757 98.3659 70.3095 98.2668 70.3088C98.1677 70.308 98.0723 70.2727 97.9984 70.2094C97.9244 70.1461 97.877 70.0591 97.8649 69.9647C97.8529 69.8703 97.877 69.7749 97.9328 69.6963C98.0961 69.5083 98.2675 69.3281 98.4471 69.1479C99.3483 68.1507 100.139 67.0661 100.806 65.9118C100.908 65.7754 100.957 65.6091 100.945 65.4417C100.945 65.4417 100.88 65.4417 100.618 65.5044C100.096 65.7037 99.6017 65.9671 99.1491 66.2879C98.9171 66.4957 98.6717 66.6894 98.4144 66.8677C98.33 66.9332 98.2219 66.9638 98.114 66.9528C98.0061 66.9417 97.9071 66.89 97.8389 66.809C97.7707 66.7279 97.7389 66.6242 97.7503 66.5206C97.7618 66.417 97.8157 66.322 97.9002 66.2566C98.1291 66.051 98.3718 65.8599 98.6267 65.6846C99.1617 65.1905 99.589 64.5992 99.8838 63.9451C100.014 63.6709 100.006 63.4123 99.9409 63.381C99.8756 63.3496 99.7613 63.381 99.492 63.5768C98.881 64.0352 98.3104 64.5409 97.7859 65.0891C97.7516 65.1287 97.7095 65.1614 97.662 65.1854C97.6145 65.2094 97.5626 65.2242 97.5091 65.229C97.4012 65.2385 97.2937 65.2065 97.2104 65.14C97.127 65.0735 97.0746 64.978 97.0646 64.8744C97.0547 64.7708 97.088 64.6676 97.1573 64.5876C97.5229 64.1246 97.7767 63.5893 97.9002 63.0205C97.9033 62.9945 97.9033 62.9682 97.9002 62.9422C97.7955 62.9767 97.6986 63.0299 97.6144 63.0989L93.8594 65.904C93.7738 65.9672 93.6656 65.9952 93.5585 65.982C93.4514 65.9688 93.3541 65.9154 93.288 65.8335C93.2254 65.7493 93.1965 65.6464 93.2064 65.5435C93.0426 65.3055 92.8318 65.1005 92.586 64.9402C92.4425 65.4504 92.3955 65.9812 92.4472 66.5073L92.439 66.4446Z" fill="#231F20"/>
<path d="M188.617 48.9637C188.617 48.9637 211.522 80.9246 199.074 84.0587C190.413 86.2448 172.495 83.8315 165.605 81.144C158.715 78.4564 155.809 76.3095 155.809 76.3095C155.809 76.3095 148.462 76.4113 149.156 74.6562C149.354 74.1606 149.72 73.7437 150.196 73.4734C150.672 73.2031 151.229 73.0953 151.777 73.1675C151.777 73.1675 148.25 73.1675 148.511 71.5377C148.773 69.9079 151.687 70.2135 151.687 70.2135C151.687 70.2135 146.618 68.952 147.842 67.8628C149.067 66.7737 151.646 67.3222 151.646 67.3222C151.646 67.3222 148.193 67.0244 148.185 65.6141C148.185 63.2086 159.017 64.901 161.246 66.6092C163.474 68.3173 179.45 69.9471 181.76 69.9627L175.352 55.4985" fill="white"/>
<path d="M190.258 85.3124C181.352 85.3124 170.56 83.4946 165.483 81.5044C162.042 80.2565 158.757 78.6456 155.687 76.7013C154.422 76.7013 149.785 76.7013 148.887 75.4241C148.791 75.2931 148.732 75.1408 148.715 74.9818C148.698 74.8228 148.723 74.6622 148.789 74.5152C148.978 74.0216 149.317 73.5934 149.76 73.285C149.261 73.1674 148.805 72.9177 148.446 72.5641C148.315 72.4153 148.221 72.2401 148.17 72.0516C148.119 71.8631 148.113 71.6661 148.152 71.475C148.229 71.1145 148.414 70.7833 148.683 70.5218C148.953 70.2602 149.296 70.0796 149.671 70.0019C148.56 69.6023 147.467 69.0617 147.303 68.4348C147.277 68.2895 147.292 68.1401 147.347 68.0023C147.401 67.8645 147.493 67.7432 147.613 67.6513C147.963 67.3664 148.377 67.1626 148.822 67.0558C148.539 66.9431 148.294 66.7562 148.117 66.5164C147.939 66.2767 147.836 65.9939 147.818 65.7003C147.823 65.4457 147.909 65.1987 148.063 64.9918C148.218 64.7848 148.434 64.6275 148.683 64.5406C151.132 63.381 159.466 64.7913 161.564 66.3898C163.466 67.8393 177.27 69.4378 181.156 69.6337L175.001 55.7414C174.979 55.6946 174.968 55.6442 174.967 55.5932C174.966 55.5421 174.976 55.4914 174.995 55.4439C175.015 55.3965 175.045 55.3533 175.082 55.3169C175.119 55.2806 175.164 55.2517 175.213 55.2321C175.262 55.2113 175.315 55.2001 175.369 55.1991C175.423 55.1982 175.476 55.2074 175.526 55.2263C175.577 55.2453 175.622 55.2735 175.661 55.3095C175.7 55.3454 175.73 55.3884 175.752 55.4358L182.233 69.8452C182.26 69.9049 182.272 69.9702 182.266 70.0352C182.26 70.1001 182.238 70.1626 182.2 70.2171C182.163 70.2715 182.112 70.3162 182.052 70.3471C181.992 70.3779 181.926 70.3939 181.858 70.3937C180.021 70.3937 163.532 68.8266 161.091 66.9539C159.23 65.5357 151.295 64.1802 149.075 65.1988C148.675 65.3868 148.675 65.5749 148.675 65.6454C148.675 66.2879 149.997 66.6954 151.05 66.8756C151.305 66.8973 151.558 66.9313 151.809 66.9774C151.912 66.9983 152.002 67.0563 152.062 67.1395C152.121 67.2227 152.145 67.3246 152.128 67.4241C152.113 67.5233 152.059 67.6132 151.977 67.6747C151.895 67.7361 151.791 67.7643 151.687 67.7531C151.589 67.7531 151.303 67.7532 150.92 67.6513C149.972 67.5051 149.002 67.6974 148.193 68.1919L148.136 68.2546C148.201 68.6072 149.981 69.3594 151.875 69.8217C151.974 69.8476 152.06 69.9089 152.115 69.9933C152.169 70.0777 152.189 70.1788 152.169 70.2762C152.149 70.3716 152.093 70.4566 152.011 70.5146C151.93 70.5725 151.829 70.5992 151.728 70.5896C151.728 70.5896 149.213 70.3859 148.993 71.6004C148.975 71.6788 148.976 71.7603 148.998 71.838C149.019 71.9157 149.059 71.9874 149.115 72.047C149.786 72.5145 150.597 72.7618 151.426 72.7522C151.578 72.7399 151.731 72.7399 151.883 72.7522C151.986 72.7676 152.079 72.8197 152.144 72.8981C152.209 72.9764 152.241 73.0754 152.234 73.1753C152.226 73.2737 152.179 73.3655 152.103 73.4323C152.028 73.4991 151.928 73.536 151.826 73.5357C151.698 73.5496 151.569 73.5496 151.442 73.5357C151.038 73.5423 150.645 73.6654 150.315 73.8889C149.984 74.1125 149.731 74.4262 149.589 74.7894C149.57 74.8158 149.559 74.8473 149.559 74.8795C149.559 74.9118 149.57 74.9432 149.589 74.9696C150.087 75.667 153.532 75.9412 155.834 75.9099C155.925 75.9047 156.016 75.9327 156.087 75.9882C156.087 75.9882 159.074 78.1351 165.785 80.7757C172.495 83.4162 190.445 85.8217 198.959 83.6748C199.644 83.5356 200.28 83.2297 200.806 82.7865C201.332 82.3433 201.731 81.7777 201.963 81.144C205.163 72.8854 188.445 49.4182 188.274 49.1753C188.228 49.0902 188.216 48.9919 188.24 48.8989C188.264 48.8059 188.323 48.7247 188.406 48.6706C188.488 48.6165 188.588 48.5934 188.688 48.6055C188.787 48.6177 188.878 48.6643 188.943 48.7365C189.645 49.7159 206.086 72.7835 202.731 81.4182C202.452 82.168 201.978 82.8374 201.356 83.3637C200.733 83.89 199.982 84.2559 199.172 84.427C196.249 85.0717 193.256 85.369 190.258 85.3124Z" fill="#231F20"/>
<path d="M151.622 186.045C151.622 186.045 147.63 189.031 144.438 186.578C144.438 186.578 133.94 185.677 132.74 192.572H151.32L151.622 186.045Z" fill="#231F20"/>
<path d="M151.32 192.964H132.74C132.681 192.964 132.622 192.951 132.569 192.927C132.515 192.903 132.468 192.867 132.43 192.823C132.394 192.779 132.367 192.729 132.351 192.675C132.336 192.621 132.332 192.565 132.34 192.509C133.589 185.34 144.373 186.186 144.479 186.194C144.559 186.203 144.635 186.233 144.699 186.28C147.597 188.506 151.23 185.849 151.369 185.74C151.43 185.693 151.505 185.665 151.583 185.658C151.661 185.651 151.74 185.666 151.809 185.7C151.877 185.736 151.933 185.788 151.971 185.851C152.01 185.915 152.03 185.987 152.03 186.061L151.728 192.588C151.723 192.689 151.679 192.785 151.602 192.855C151.526 192.925 151.425 192.964 151.32 192.964ZM133.238 192.18H150.936L151.181 186.79C149.85 187.573 146.854 188.835 144.291 186.962C143.189 186.899 134.65 186.578 133.255 192.18H133.238Z" fill="#231F20"/>
<path d="M30.2606 49.6062H26.7505V171.644H30.2606V49.6062Z" fill="white"/>
<path d="M30.2606 172.035H26.7505C26.6423 172.035 26.5384 171.994 26.4619 171.921C26.3853 171.847 26.3423 171.747 26.3423 171.644V49.6062C26.3423 49.5023 26.3853 49.4026 26.4619 49.3292C26.5384 49.2557 26.6423 49.2144 26.7505 49.2144H30.2606C30.3682 49.2164 30.4708 49.2584 30.5469 49.3314C30.623 49.4044 30.6667 49.5029 30.6688 49.6062V171.644C30.6688 171.747 30.6258 171.847 30.5493 171.921C30.4727 171.994 30.3689 172.035 30.2606 172.035ZM27.1587 171.252H29.8525V49.998H27.1342L27.1587 171.252Z" fill="#0A0808" fill-opacity="0.93"/>
<path d="M44.2114 92.0588H8.93044V76.952H44.2114L49.8603 84.5054L44.2114 92.0588Z" fill="white"/>
<path d="M44.2114 92.4505H8.93043C8.82218 92.4505 8.71837 92.4093 8.64182 92.3358C8.56528 92.2623 8.52228 92.1627 8.52228 92.0588V76.9598C8.52228 76.8559 8.56528 76.7563 8.64182 76.6828C8.71837 76.6093 8.82218 76.568 8.93043 76.568H44.2114C44.2756 76.5683 44.3388 76.5834 44.3956 76.612C44.4524 76.6407 44.5012 76.682 44.5379 76.7326L50.1949 84.286C50.243 84.3528 50.2688 84.432 50.2688 84.5132C50.2688 84.5944 50.243 84.6736 50.1949 84.7404L44.5379 92.2938C44.5019 92.3445 44.453 92.3854 44.3958 92.4128C44.3387 92.4402 44.2752 92.4532 44.2114 92.4505ZM9.33859 91.667H43.9991L49.3541 84.5054L43.9991 77.3437H9.33859V91.667Z" fill="black"/>
<path d="M9.28961 71.1851H44.5706V56.0783H9.28961L3.64074 63.6317L9.28961 71.1851Z" fill="white"/>
<path d="M44.5706 71.5768H9.28961C9.2244 71.5759 9.16029 71.5606 9.10225 71.5321C9.04421 71.5036 8.9938 71.4626 8.95493 71.4123L3.30605 63.8589C3.25832 63.7905 3.23284 63.7101 3.23284 63.6278C3.23284 63.5455 3.25832 63.465 3.30605 63.3966L8.95493 55.8432C8.99421 55.794 9.0449 55.7542 9.103 55.727C9.16109 55.6998 9.22498 55.6859 9.28961 55.6865H44.5706C44.6788 55.6865 44.7826 55.7278 44.8592 55.8013C44.9357 55.8747 44.9787 55.9744 44.9787 56.0783V71.1851C44.9766 71.2883 44.933 71.3868 44.8569 71.4599C44.7808 71.5329 44.6782 71.5748 44.5706 71.5768ZM9.4692 70.7933H44.1298V56.4701H9.50185L4.13869 63.6395L9.4692 70.7933Z" fill="black"/>
</svg>
